<?xml version="1.0" encoding="UTF-8"?>
<svg width="18px" height="19px" viewBox="0 0 18 19" version="1.1" xmlns="http://www.w3.org/2000/svg" xmlns:xlink="http://www.w3.org/1999/xlink">
    <!-- Generator: sketchtool 58 (101010) - https://sketch.com -->
    <title>DDFB620C-D682-4011-BE30-44327E0E4D84</title>
    <desc>Created with sketchtool.</desc>
    <g id="2.-Company-/-Bank-/-Branches" stroke="none" stroke-width="1" fill="none" fill-rule="evenodd">
        <g id="Company-Details-(Add-More)" transform="translate(-1169.000000, -1035.000000)">
            <g id="bin-1" transform="translate(1166.000000, 1032.000000)">
                <g id="Frame_-_24px">
                    <rect id="Rectangle" x="0" y="0" width="24" height="24"></rect>
                </g>
                <g id="Line_Icons" transform="translate(3.000000, 3.000000)" fill="#DC1B1B" fill-rule="nonzero">
                    <path d="M2,17 C2,18.103 2.897,19 4,19 L14,19 C15.103,19 16,18.103 16,17 L16,5 L2,5 L2,17 Z M4,7 L14,7 L14.001,17 L4,17 L4,7 Z" id="Shape"></path>
                    <polygon id="Path" points="12 2 12 0 6 0 6 2 0 2 0 4 18 4 18 2"></polygon>
                    <rect id="Rectangle" x="6" y="9" width="2" height="6"></rect>
                    <rect id="Rectangle" x="10" y="9" width="2" height="6"></rect>
                </g>
            </g>
        </g>
    </g>
</svg>