<?xml version="1.0" encoding="UTF-8"?>
<svg width="100px" height="100px" viewBox="0 0 100 100" version="1.1" xmlns="http://www.w3.org/2000/svg" xmlns:xlink="http://www.w3.org/1999/xlink">
    <!-- Generator: sketchtool 58 (101010) - https://sketch.com -->
    <title>4B087941-AEC1-4FD6-9973-C449EF4B519E</title>
    <desc>Created with sketchtool.</desc>
    <g id="Foreign-Vendor" stroke="none" stroke-width="1" fill="none" fill-rule="evenodd">
        <g id="Submit-Account---Successfully" transform="translate(-670.000000, -304.000000)" fill="#E78C03">
            <g id="Group" transform="translate(260.000000, 220.000000)">
                <g id="check-circle-outline" transform="translate(410.000000, 84.000000)">
                    <path d="M23.2097195,46.7902805 C22.8177522,47.1822478 22.8180671,47.8180671 23.2105418,48.2105418 L44.2894582,69.2894582 C44.6818796,69.6818796 45.3192902,69.6807098 45.7068157,69.2931843 L94.2931843,20.7068157 C94.6835478,20.3164522 94.6810349,19.6810349 94.2902805,19.2902805 L88.7097195,13.7097195 C88.3177522,13.3177522 87.678605,13.321395 87.2895307,13.7104693 L45.7104693,55.2895307 C45.3180879,55.6819121 44.6903816,55.6903816 44.2937202,55.2937202 L30.2062798,41.2062798 C29.8162122,40.8162122 29.1810349,40.8189651 28.7902805,41.2097195 L23.2097195,46.7902805 Z M90,50 C90,72 72,90 50,90 C28,90 10,72 10,50 C10,28 28,10 50,10 C54,10 57.5,10.5 61,11.5 L69,3.5 C63,1.5 56.5,0 50,0 C22.5,0 0,22.5 0,50 C0,77.5 22.5,100 50,100 C77.5,100 100,77.5 100,50 L90,50 L90,50 Z" id="Shape"></path>
                </g>
            </g>
        </g>
    </g>
</svg>