<?xml version="1.0" encoding="UTF-8"?>
<svg width="27px" height="27px" viewBox="0 0 27 27" version="1.1" xmlns="http://www.w3.org/2000/svg" xmlns:xlink="http://www.w3.org/1999/xlink">
    <!-- Generator: sketchtool 58 (101010) - https://sketch.com -->
    <title>F2BD5C88-3E59-4137-9BCF-6B40EAE315C5</title>
    <desc>Created with sketchtool.</desc>
    <g id="Foreign-Vendor" stroke="none" stroke-width="1" fill="none" fill-rule="evenodd">
        <g id="Submit-Account---Successfully" transform="translate(-1123.000000, -250.000000)" fill="#4B4B4B">
            <g id="Group" transform="translate(260.000000, 220.000000)">
                <g id="close" transform="translate(863.000000, 30.000000)">
                    <path d="M25.5880886,4.11191139 C26.3678657,3.33213426 26.3737793,2.0737793 25.5867393,1.28673935 L25.7132607,1.41326065 C24.9327383,0.632738346 23.6726648,0.627335161 22.8880886,1.41191139 L13.5,10.8 L4.11191139,1.41191139 C3.33213426,0.632134262 2.0737793,0.626220703 1.28673935,1.41326065 L1.41326065,1.28673935 C0.632738346,2.06726165 0.627335161,3.32733516 1.41191139,4.11191139 L10.8,13.5 L1.41191139,22.8880886 C0.632134262,23.6678657 0.626220703,24.9262207 1.41326065,25.7132607 L1.28673935,25.5867393 C2.06726165,26.3672617 3.32733516,26.3726648 4.11191139,25.5880886 L13.5,16.2 L22.8880886,25.5880886 C23.6678657,26.3678657 24.9262207,26.3737793 25.7132607,25.5867393 L25.5867393,25.7132607 C26.3672617,24.9327383 26.3726648,23.6726648 25.5880886,22.8880886 L16.2,13.5 L25.5880886,4.11191139 Z" id="Shape"></path>
                </g>
            </g>
        </g>
    </g>
</svg>