<?xml version="1.0" encoding="UTF-8"?>
<svg width="12px" height="11px" viewBox="0 0 12 11" version="1.1" xmlns="http://www.w3.org/2000/svg" xmlns:xlink="http://www.w3.org/1999/xlink">
    <!-- Generator: sketchtool 58 (101010) - https://sketch.com -->
    <title>648DD571-0F68-4619-826D-9BF8337B3CCF</title>
    <desc>Created with sketchtool.</desc>
    <g id="6.-Additionals" stroke="none" stroke-width="1" fill="none" fill-rule="evenodd">
        <g id="Account-Setting-(Dropdown)" transform="translate(-1165.000000, -145.000000)" fill="#000000" fill-rule="nonzero">
            <g id="Group-7" transform="translate(1150.000000, 67.000000)">
                <g id="Group-8" transform="translate(15.000000, 75.000000)">
                    <g id="iconfinder_icons_Message_1564513" transform="translate(0.000000, 3.000000)">
                        <path d="M10,0 L2,0 C0.9,0 0,0.900601923 0,2.00133761 L0,7.00468163 C0,8.10541731 0.9,9.00601923 2,9.00601923 L2,10.5070224 C2,10.9573234 2.55,11.1574572 2.85,10.8572565 L4.7,9.00601923 L10,9.00601923 C11.1,9.00601923 12,8.10541731 12,7.00468163 L12,2.00133761 C12,0.900601923 11.1,0 10,0 Z M7,6.00401282 L4,6.00401282 C3.7,6.00401282 3.5,5.80387906 3.5,5.50367842 C3.5,5.20347778 3.7,5.00334402 4,5.00334402 L7,5.00334402 C7.3,5.00334402 7.5,5.20347778 7.5,5.50367842 C7.5,5.80387906 7.3,6.00401282 7,6.00401282 Z M8,4.00267522 L4,4.00267522 C3.7,4.00267522 3.5,3.80254145 3.5,3.50234081 C3.5,3.20214017 3.7,3.00200641 4,3.00200641 L8,3.00200641 C8.3,3.00200641 8.5,3.20214017 8.5,3.50234081 C8.5,3.80254145 8.3,4.00267522 8,4.00267522 Z" id="message"></path>
                    </g>
                </g>
            </g>
        </g>
    </g>
</svg>