<?xml version="1.0" encoding="UTF-8"?>
<svg width="137px" height="138px" viewBox="0 0 137 138" version="1.1" xmlns="http://www.w3.org/2000/svg" xmlns:xlink="http://www.w3.org/1999/xlink">
    <!-- Generator: sketchtool 59.1 (101010) - https://sketch.com -->
    <title>03A12649-0081-4053-81EA-9FC52BA0D469</title>
    <desc>Created with sketchtool.</desc>
    <g id="1.-Login" stroke="none" stroke-width="1" fill="none" fill-rule="evenodd">
        <g id="Email-Sent-Successfully" transform="translate(-652.000000, -442.000000)">
            <g id="Group-5" transform="translate(355.000000, 274.000000)">
                <g id="Group-4" transform="translate(139.000000, 80.000000)">
                    <g id="iconfinder_check_1930264" transform="translate(158.000000, 88.000000)">
                        <path d="M137,68.5 C137,68.4412017 137,68.3530043 137,68.294206 C137,67.8238197 137,67.3534335 136.970601,66.9124464 C136.970601,66.6478541 136.941202,66.3832618 136.941202,66.0892704 C136.941202,65.8246781 136.911803,65.5600858 136.911803,65.2954936 C136.882403,64.972103 136.882403,64.6487124 136.853004,64.3253219 C136.853004,64.1195279 136.823605,63.9137339 136.823605,63.7079399 C136.794206,63.3551502 136.764807,63.0023605 136.735408,62.6495708 C136.735408,62.5025751 136.706009,62.3261803 136.706009,62.1791845 C136.676609,61.7969957 136.617811,61.4148069 136.588412,61.0032189 C136.588412,60.9150215 136.559013,60.7974249 136.559013,60.7092275 C132.678326,26.5474249 103.690773,0 68.5,0 C33.3092275,0 4.32167382,26.5474249 0.440987124,60.7386266 C0.440987124,60.826824 0.411587983,60.9444206 0.411587983,61.032618 C0.382188841,61.4148069 0.323390558,61.7969957 0.293991416,62.2085837 C0.264592275,62.3555794 0.264592275,62.5319742 0.264592275,62.67897 C0.235193133,63.0317597 0.205793991,63.3845494 0.17639485,63.7373391 C0.17639485,63.943133 0.146995708,64.148927 0.146995708,64.354721 C0.117596567,64.6781116 0.117596567,65.0015021 0.0881974249,65.3248927 C0.0881974249,65.589485 0.0587982833,65.8540773 0.0587982833,66.1186695 C0.0587982833,66.3832618 0.0293991416,66.6478541 0.0293991416,66.9418455 C0.0293991416,67.4122318 0,67.882618 0,68.3236052 C0,68.3824034 0,68.4706009 0,68.5293991 C0,68.5293991 0,68.5293991 0,68.5587983 C0,68.5881974 0,68.5587983 0,68.5881974 C0,68.6469957 0,68.7351931 0,68.7939914 C0,69.2643777 0,69.7347639 0.0293991416,70.1757511 C0.0293991416,70.4403433 0.0587982833,70.7049356 0.0587982833,70.998927 C0.0587982833,71.2635193 0.0881974249,71.5281116 0.0881974249,71.7927039 C0.117596567,72.1160944 0.117596567,72.439485 0.146995708,72.7628755 C0.146995708,72.9686695 0.17639485,73.1744635 0.17639485,73.3802575 C0.205793991,73.7330472 0.235193133,74.0858369 0.264592275,74.4386266 C0.264592275,74.5856223 0.293991416,74.7620172 0.293991416,74.9090129 C0.323390558,75.2912017 0.382188841,75.6733906 0.411587983,76.0849785 C0.411587983,76.173176 0.440987124,76.2907725 0.440987124,76.37897 C4.32167382,110.511373 33.3092275,137.058798 68.5,137.058798 C103.690773,137.058798 132.678326,110.511373 136.559013,76.3495708 C136.559013,76.2613734 136.588412,76.1437768 136.588412,76.0555794 C136.617811,75.6733906 136.676609,75.2912017 136.706009,74.8796137 C136.735408,74.732618 136.735408,74.5562232 136.735408,74.4092275 C136.764807,74.0564378 136.794206,73.7036481 136.823605,73.3508584 C136.823605,73.1450644 136.853004,72.9392704 136.853004,72.7334764 C136.882403,72.4100858 136.882403,72.0866953 136.911803,71.7633047 C136.911803,71.4987124 136.941202,71.2341202 136.941202,70.9695279 C136.941202,70.7049356 136.970601,70.4403433 136.970601,70.1463519 C136.970601,69.6759657 137,69.2055794 137,68.7645923 C137,68.705794 137,68.6175966 137,68.5587983 C137,68.5293991 137,68.5293991 137,68.5 C137,68.5293991 137,68.5293991 137,68.5 Z" id="XMLID_3_" fill="#2BB673" fill-rule="nonzero"></path>
                        <g id="XMLID_1_" transform="translate(37.000000, 46.000000)" stroke="#FFFFFF" stroke-width="10">
                            <line x1="16.7877112" y1="45.9214592" x2="62.6797713" y2="0.0587982833" id="XMLID_2_"></line>
                            <line x1="23.460515" y1="45.6373916" x2="0.205793991" y2="22.3826705" id="XMLID_4_"></line>
                        </g>
                    </g>
                </g>
            </g>
        </g>
    </g>
</svg>