<?xml version="1.0" encoding="UTF-8"?>
<svg width="237px" height="187px" viewBox="0 0 237 187" version="1.1" xmlns="http://www.w3.org/2000/svg" xmlns:xlink="http://www.w3.org/1999/xlink">
    <!-- Generator: sketchtool 58 (101010) - https://sketch.com -->
    <title>CF265B38-41EF-4D0E-AE98-B2F2FA8A7DA9</title>
    <desc>Created with sketchtool.</desc>
    <g id="1.-Login" stroke="none" stroke-width="1" fill="none" fill-rule="evenodd">
        <g id="Email-Verification" transform="translate(-602.000000, -521.000000)" fill="#E78C03" fill-rule="nonzero">
            <g id="Group-5" transform="translate(355.000000, 275.000000)">
                <g id="Group-4" transform="translate(107.000000, 80.000000)">
                    <g id="black-back-closed-envelope-shape" transform="translate(140.000000, 166.000000)">
                        <path d="M215.15807,187 C220.475546,187 225.083081,185.22638 229,181.724261 L161.979017,114.018222 C160.371019,115.181401 158.812411,116.312474 157.34013,117.388014 C152.324584,121.120946 148.253908,124.033883 145.128103,126.121184 C142.002728,128.213257 137.844437,130.34568 132.65366,132.52279 C127.459446,134.702503 122.620419,135.788888 118.131423,135.788888 L118,135.788888 L117.868577,135.788888 C113.379152,135.788888 108.540124,134.702937 103.34634,132.52279 C98.1525568,130.34568 93.9942658,128.213257 90.8718969,126.121184 C87.7465215,124.033883 83.6779933,121.12138 78.6598697,117.388014 C77.2614607,116.352389 75.7105839,115.21611 74.0338675,114 L7,181.724261 C10.91649,185.22638 15.5270306,187 20.844077,187 L215.15807,187 L215.15807,187 Z" id="Path"></path>
                        <path d="M13.3180143,71.6021144 C8.30901331,68.2248163 3.86710145,64.3568664 0,60 L0,163 L59,103.331797 C47.1966541,94.998092 31.9886288,84.433678 13.3180143,71.6021144 Z" id="Path"></path>
                        <path d="M223.810119,71.6018212 C205.844399,83.8942682 190.574931,94.4766353 178,103.354562 L237,163 L237,60 C233.217178,64.2691266 228.821124,68.1343759 223.810119,71.6018212 Z" id="Path"></path>
                        <path d="M215.837388,0 L21.1596001,0 C14.3678741,0 9.14628288,2.30308642 5.48837214,6.90450617 C1.82744935,11.5080864 0,17.2653704 0,24.1698765 C0,29.7469753 2.42512468,35.7898765 7.2732226,42.3003086 C12.1213205,48.8081481 17.2800891,53.9198765 22.7469467,57.6380864 C25.7439292,59.7644444 34.7817785,66.0739506 49.8604947,76.5644444 C58.000325,82.2288272 65.0790557,87.1659877 71.1620911,91.4264815 C76.3471075,95.0543827 80.8187001,98.1961728 84.5106039,100.803457 C84.9344413,101.102037 85.6009633,101.580802 86.4856433,102.215988 C87.4387397,102.903457 88.6448477,103.775864 90.1327968,104.854815 C92.99811,106.935802 95.3784843,108.617963 97.2743501,109.903025 C99.1676341,111.188519 101.46152,112.624383 104.152565,114.218827 C106.841458,115.811111 109.377598,117.008457 111.757973,117.804815 C114.138777,118.600741 116.342732,119 118.370267,119 L118.501936,119 L118.633606,119 C120.66071,119 122.865095,118.600741 125.24633,117.804815 C127.626274,117.008457 130.160263,115.813704 132.851308,114.218827 C135.539771,112.624383 137.830645,111.185494 139.729953,109.903025 C141.625819,108.617963 144.006193,106.936235 146.871936,104.854815 C148.356874,103.775864 149.562981,102.903025 150.516078,102.218148 C151.401188,101.58037 152.06728,101.10463 152.493699,100.803457 C155.36977,98.7937654 159.851689,95.6649383 165.877496,91.4632099 C176.842192,83.8129012 192.990183,72.5528395 214.389456,57.6380864 C220.825331,53.1239506 226.202257,47.6764815 230.523678,41.3034568 C234.837353,34.9304321 237,28.2454321 237,21.2506173 C237,15.4064815 234.903188,10.4058025 230.7186,6.24080247 C226.529279,2.08098765 221.568445,0 215.837388,0 Z" id="Path"></path>
                    </g>
                </g>
            </g>
        </g>
    </g>
</svg>