<?xml version="1.0" encoding="UTF-8"?>
<svg width="137px" height="109px" viewBox="0 0 137 109" version="1.1" xmlns="http://www.w3.org/2000/svg" xmlns:xlink="http://www.w3.org/1999/xlink">
    <!-- Generator: sketchtool 59.1 (101010) - https://sketch.com -->
    <title>CF265B38-41EF-4D0E-AE98-B2F2FA8A7DA9</title>
    <desc>Created with sketchtool.</desc>
    <g id="1.-Login" stroke="none" stroke-width="1" fill="none" fill-rule="evenodd">
        <g id="Email-Verification" transform="translate(-652.000000, -519.000000)" fill="#FF8900" fill-rule="nonzero">
            <g id="Group-5" transform="translate(355.000000, 274.000000)">
                <g id="Group-4" transform="translate(107.000000, 80.000000)">
                    <g id="black-back-closed-envelope-shape" transform="translate(190.000000, 165.000000)">
                        <path d="M124.374074,108.097046 C127.44789,108.097046 130.111317,107.071789 132.375527,105.047358 L93.6334402,65.9092676 C92.7039221,66.5816538 91.8029549,67.235481 90.9518897,67.8572062 C88.0526074,70.0150616 85.6995164,71.6989111 83.8926166,72.9054944 C82.085965,74.1148364 79.6822272,75.3475025 76.6816513,76.6060007 C73.6790893,77.8660037 70.8818455,78.4939988 68.2869407,78.4939988 L68.2109705,78.4939988 L68.1350002,78.4939988 C65.5398472,78.4939988 62.7426034,77.8662545 59.7402896,76.6060007 C56.7379759,75.3475025 54.334238,74.1148364 52.5293243,72.9054944 C50.7226728,71.6989111 48.3708231,70.0153124 45.4700513,67.8572062 C44.6616883,67.2585543 43.7651899,66.6017175 42.7959488,65.8987342 L4.0464135,105.047358 C6.31037606,107.071789 8.97554089,108.097046 12.0491078,108.097046 L124.374074,108.097046 L124.374074,108.097046 Z" id="Path"></path>
                        <path d="M7.69859896,41.3902518 C4.80310052,39.437974 2.23541307,37.2020704 0,34.6835443 L0,94.2236287 L34.1054852,59.7318829 C27.2824541,54.9145089 18.4913171,48.8076535 7.69859896,41.3902518 Z" id="Path"></path>
                        <path d="M129.37547,41.3900823 C118.990222,48.4958428 110.163568,54.6130761 102.894515,59.7450421 L137,94.2236287 L137,34.6835443 C134.813306,37.1513517 132.272126,39.3856941 129.37547,41.3900823 Z" id="Path"></path>
                        <path d="M124.76676,0 L12.2314988,0 C8.30547996,0 5.28709179,1.33132 3.1726033,3.99121243 C1.05637367,6.65235375 0,9.98040397 0,13.9716164 C0,17.1955089 1.40186532,20.6886628 4.2043523,24.4520771 C7.00683928,28.2139928 9.98891227,31.1688738 13.1490789,33.3182187 C14.8815118,34.5473793 20.1059226,38.1946466 28.8223113,44.2587717 C33.527614,47.5331195 37.6195385,50.3870899 41.1358923,52.849907 C44.1331381,54.9470482 46.7179827,56.7631885 48.8521212,58.2703527 C49.0971243,58.4429497 49.4824134,58.7197044 49.9938107,59.0868789 C50.5447567,59.4842767 51.2419584,59.9885797 52.1020808,60.6122769 C53.7584011,61.8152107 55.1343981,62.7875988 56.2303205,63.5304404 C57.3247505,64.2735318 58.6507519,65.1035461 60.2063349,66.0252292 C61.7606742,66.9456634 63.226713,67.6377999 64.6027099,68.0981419 C65.9789556,68.5582341 67.2529716,68.7890295 68.4250067,68.7890295 L68.5011193,68.7890295 L68.5772319,68.7890295 C69.7490182,68.7890295 71.023283,68.5582341 72.3997774,68.0981419 C73.7755257,67.6377999 75.2403207,66.9471621 76.7959037,66.0252292 C78.3499943,65.1035461 79.6742546,64.2717834 80.7721668,63.5304404 C81.8680892,62.7875988 83.2440862,61.8154605 84.9006552,60.6122769 C85.7590366,59.9885797 86.4562382,59.4840269 87.0071842,59.0881278 C87.5188303,58.7194546 87.9038706,58.4444484 88.1503661,58.2703527 C89.8129048,57.1086323 92.403719,55.2999854 95.8869912,52.8711382 C102.225233,48.4488079 111.559726,41.9398271 123.92977,33.3182187 C127.650086,30.7087816 130.758267,27.5598226 133.256303,23.8758379 C135.749862,20.1918532 137,16.3275283 137,12.2841121 C137,8.90585638 135.787919,6.01516852 133.36898,3.60755248 C130.947305,1.20293379 128.079649,0 124.76676,0 Z" id="Path"></path>
                    </g>
                </g>
            </g>
        </g>
    </g>
</svg>