<?xml version="1.0" encoding="UTF-8"?>
<svg width="100px" height="100px" viewBox="0 0 100 100" version="1.1" xmlns="http://www.w3.org/2000/svg" xmlns:xlink="http://www.w3.org/1999/xlink">
    <!-- Generator: sketchtool 58 (101010) - https://sketch.com -->
    <title>9F55B61E-4F97-4536-BCB8-3BBD34157081</title>
    <desc>Created with sketchtool.</desc>
    <g id="Foreign-Vendor" stroke="none" stroke-width="1" fill="none" fill-rule="evenodd">
        <g id="Submit-Account---Rejected" transform="translate(-670.000000, -297.000000)" fill="#E78C03">
            <g id="Group" transform="translate(260.000000, 213.000000)">
                <g id="error" transform="translate(410.000000, 84.000000)">
                    <path d="M50,0 C22.5,0 0,22.5 0,50 C0,77.5 22.5,100 50,100 C77.5,100 100,77.5 100,50 C100,22.5 77.5,0 50,0 L50,0 Z M55,75 L45,75 L45,65 L55,65 L55,75 L55,75 Z M55,55 L45,55 L45,25 L55,25 L55,55 L55,55 Z" id="Shape"></path>
                </g>
            </g>
        </g>
    </g>
</svg>