<?xml version="1.0" encoding="UTF-8"?>
<svg width="22px" height="22px" viewBox="0 0 22 22" version="1.1" xmlns="http://www.w3.org/2000/svg" xmlns:xlink="http://www.w3.org/1999/xlink">
    <!-- Generator: sketchtool 58 (101010) - https://sketch.com -->
    <title>C619221F-2862-4D2A-9E38-5B728796EB4D</title>
    <desc>Created with sketchtool.</desc>
    <g id="Foreign-Vendor" stroke="none" stroke-width="1" fill="none" fill-rule="evenodd">
        <g id="Company-Details---View" transform="translate(-100.000000, -207.000000)" fill="#AF9164">
            <g id="Group-6" transform="translate(100.000000, 155.000000)">
                <g id="Group-5" transform="translate(0.000000, 52.000000)">
                    <g id="error">
                        <path d="M11,0 C4.95,0 0,4.95 0,11 C0,17.05 4.95,22 11,22 C17.05,22 22,17.05 22,11 C22,4.95 17.05,0 11,0 L11,0 Z M12.1,16.5 L9.9,16.5 L9.9,14.3 L12.1,14.3 L12.1,16.5 L12.1,16.5 Z M12.1,12.1 L9.9,12.1 L9.9,5.5 L12.1,5.5 L12.1,12.1 L12.1,12.1 Z" id="Shape"></path>
                    </g>
                </g>
            </g>
        </g>
    </g>
</svg>