<?xml version="1.0" encoding="UTF-8"?>
<svg width="12px" height="9px" viewBox="0 0 12 9" version="1.1" xmlns="http://www.w3.org/2000/svg" xmlns:xlink="http://www.w3.org/1999/xlink">
    <!-- Generator: sketchtool 58 (101010) - https://sketch.com -->
    <title>8DC908E3-FF20-4C65-A152-128D9667E76D</title>
    <desc>Created with sketchtool.</desc>
    <g id="6.-Additionals" stroke="none" stroke-width="1" fill="none" fill-rule="evenodd">
        <g id="Account-Setting-(Dropdown)" transform="translate(-1165.000000, -192.000000)" fill="#000000" fill-rule="nonzero">
            <g id="Group-7" transform="translate(1150.000000, 67.000000)">
                <g id="Group-5" transform="translate(15.000000, 121.000000)">
                    <g id="path-3" transform="translate(0.000000, 4.000000)">
                        <path d="M11.8281506,4.8984375 L7.70376432,8.8359375 C7.58919746,8.94531305 7.45008265,9 7.28641571,9 C7.12274877,9 6.98363396,8.94531305 6.8690671,8.8359375 C6.75450025,8.72656195 6.69721768,8.59375078 6.69721768,8.4375 L6.69721768,6.1875 L3.35842881,6.1875 C3.19476187,6.1875 3.05564705,6.13281305 2.9410802,6.0234375 C2.82651334,5.91406195 2.76923077,5.78125078 2.76923077,5.625 L2.76923077,3.375 C2.76923077,3.21874922 2.82651334,3.08593805 2.9410802,2.9765625 C3.05564705,2.86718695 3.19476187,2.8125 3.35842881,2.8125 L6.69721768,2.8125 L6.69721768,0.5625 C6.69721768,0.406249219 6.75450025,0.273438047 6.8690671,0.1640625 C6.98363396,0.0546869531 7.12274877,0 7.28641571,0 C7.45008265,0 7.58919746,0.0546869531 7.70376432,0.1640625 L11.8281506,4.1015625 C11.9427174,4.21093805 12,4.34374922 12,4.5 C12,4.65625078 11.9427174,4.78906195 11.8281506,4.8984375 Z M4.61538462,8.71875 C4.61538462,8.79687539 4.58734002,8.86328098 4.53125,8.91796875 C4.47515998,8.97265652 4.40705168,9 4.32692308,9 L2.30769231,9 C1.66666346,9 1.12179712,8.78125219 0.673076923,8.34375 C0.224356731,7.90624781 0,7.37500313 0,6.75 L0,2.25 C0,1.62499687 0.224356731,1.09375219 0.673076923,0.65625 C1.12179712,0.218747812 1.66666346,0 2.30769231,0 L4.32692308,0 C4.40705168,0 4.47515998,0.0273434766 4.53125,0.08203125 C4.58734002,0.136719023 4.61538462,0.203124609 4.61538462,0.28125 L4.61538462,1.21875 C4.61538462,1.29687539 4.58734002,1.36328098 4.53125,1.41796875 C4.47515998,1.47265652 4.40705168,1.5 4.32692308,1.5 L2.30769231,1.5 C2.09935793,1.5 1.91907127,1.57421801 1.76682692,1.72265625 C1.61458257,1.87109449 1.53846154,2.04687398 1.53846154,2.25 L1.53846154,6.75 C1.53846154,6.95312602 1.61458257,7.12890551 1.76682692,7.27734375 C1.91907127,7.42578199 2.09935793,7.5 2.30769231,7.5 L4.32692308,7.5 C4.40705168,7.5 4.47515998,7.52734348 4.53125,7.58203125 C4.58734002,7.63671902 4.61538462,7.70312461 4.61538462,7.78125 L4.61538462,8.71875 Z" id="path"></path>
                    </g>
                </g>
            </g>
        </g>
    </g>
</svg>