<?xml version="1.0" encoding="UTF-8"?>
<svg width="17px" height="20px" viewBox="0 0 17 20" version="1.1" xmlns="http://www.w3.org/2000/svg" xmlns:xlink="http://www.w3.org/1999/xlink">
    <!-- Generator: sketchtool 58 (101010) - https://sketch.com -->
    <title>238C898C-1F16-4F17-813F-38DBA471386E</title>
    <desc>Created with sketchtool.</desc>
    <g id="Foreign-Vendor" stroke="none" stroke-width="1" fill="none" fill-rule="evenodd">
        <g id="Company-Details" transform="translate(-1079.000000, -37.000000)" fill="#E78C03">
            <g id="Navbar/home/login-Navbar/home/login/dropdown">
                <g id="Group-6">
                    <g id="notifications-none" transform="translate(1079.000000, 37.000000)">
                        <path d="M8.5,20 C9.6,20 10.5,19.1 10.5,18 L6.5,18 C6.5,19.1 7.4,20 8.5,20 L8.5,20 Z M15,14 L15,8.5 C15,5.4 12.9,2.9 10,2.2 L10,1.5 C10,0.7 9.3,0 8.5,0 C7.7,0 7,0.7 7,1.5 L7,2.2 C4.1,2.9 2,5.4 2,8.5 L2,14 L0,16 L0,17 L17,17 L17,16 L15,14 L15,14 Z M13,15 L4,15 L4,8.5 C4,6 6,4 8.5,4 C11,4 13,6 13,8.5 L13,15 L13,15 Z" id="Shape"></path>
                    </g>
                </g>
            </g>
        </g>
    </g>
</svg>