<?xml version="1.0" encoding="UTF-8"?>
<svg width="35px" height="35px" viewBox="0 0 35 35" version="1.1" xmlns="http://www.w3.org/2000/svg" xmlns:xlink="http://www.w3.org/1999/xlink">
    <!-- Generator: sketchtool 58 (101010) - https://sketch.com -->
    <title>85A74C1A-D5D9-4E83-82C9-086104E1AE6B</title>
    <desc>Created with sketchtool.</desc>
    <g id="Burned-Samples" stroke="none" stroke-width="1" fill="none" fill-rule="evenodd">
        <g id="Status" transform="translate(-130.000000, -451.000000)" fill="#241F20" fill-rule="nonzero">
            <g id="Status/rejected" transform="translate(100.000000, 425.000000)">
                <g id="rejected">
                    <g id="iconfinder_none_3017958" transform="translate(30.000000, 26.000000)">
                        <path d="M17.5,0 C7.83489583,0 0,7.83489583 0,17.5 C0,27.1651042 7.83489583,35 17.5,35 C27.1651042,35 35,27.1651042 35,17.5 C35,7.83489583 27.1651042,0 17.5,0 Z M2.91666667,17.5 C2.91666667,9.445625 9.445625,2.91666667 17.5,2.91666667 C21.0364583,2.91666667 24.2761458,4.1759375 26.8005208,6.26864583 L6.26864583,26.8005208 C4.1759375,24.2761458 2.91666667,21.0364583 2.91666667,17.5 Z M17.5,32.0833333 C14.0320833,32.0833333 10.8507292,30.8678125 8.3475,28.8465625 L28.8458333,8.34895833 C30.8678125,10.8507292 32.0833333,14.0320833 32.0833333,17.5 C32.0833333,25.554375 25.554375,32.0833333 17.5,32.0833333 Z" id="Shape"></path>
                    </g>
                </g>
            </g>
        </g>
    </g>
</svg>