<?xml version="1.0" encoding="UTF-8"?>
<svg width="12px" height="13px" viewBox="0 0 12 13" version="1.1" xmlns="http://www.w3.org/2000/svg" xmlns:xlink="http://www.w3.org/1999/xlink">
    <!-- Generator: sketchtool 58 (101010) - https://sketch.com -->
    <title>2578416B-26E8-44DD-B385-5A5EC7354DEA</title>
    <desc>Created with sketchtool.</desc>
    <g id="6.-Additionals" stroke="none" stroke-width="1" fill="none" fill-rule="evenodd">
        <g id="Account-Setting-(Dropdown)" transform="translate(-1165.000000, -98.000000)" fill="#000000" fill-rule="nonzero">
            <g id="Group-7" transform="translate(1150.000000, 67.000000)">
                <g id="Group-9" transform="translate(15.000000, 29.000000)">
                    <g id="path-2" transform="translate(0.000000, 2.000000)">
                        <path d="M10.776748,7.15248593 L11.8382476,7.78433091 C11.9056447,7.81802948 11.9519796,7.86857657 11.9772535,7.9359737 C12.0025274,8.00337084 12.0067397,8.07076696 11.9898904,8.1381641 C11.7034526,9.03117613 11.2401042,9.82308059 10.5998315,10.5139012 C10.5492836,10.5644491 10.490312,10.5981471 10.4229149,10.6149964 C10.3555177,10.6318457 10.2881216,10.6234212 10.2207245,10.5897226 L9.1592249,9.95787764 C8.70429424,10.3454112 8.19039879,10.6402692 7.61752315,10.8424606 L7.61752315,12.0808768 C7.61752315,12.1482739 7.59646186,12.2114578 7.55433865,12.2704303 C7.51221544,12.3294028 7.45745609,12.3673131 7.39005896,12.3841624 C6.46334835,12.5863538 5.53665165,12.5863538 4.60994104,12.3841624 C4.54254391,12.3673131 4.48778456,12.3294028 4.44566135,12.2704303 C4.40353814,12.2114578 4.38247685,12.1482739 4.38247685,12.0808768 L4.38247685,10.8424606 C3.80960121,10.6402692 3.29570576,10.3454112 2.8407751,9.95787764 L1.77927554,10.5897226 C1.7118784,10.6234212 1.64448228,10.6318457 1.57708514,10.6149964 C1.50968801,10.5981471 1.4507164,10.5644491 1.40016855,10.5139012 C0.759895767,9.82308059 0.296547415,9.03117613 0.0101095925,8.1381641 C-0.00673969124,8.07076696 -0.0025274335,8.00337084 0.0227464921,7.9359737 C0.0480204176,7.86857657 0.0943552528,7.81802948 0.161752388,7.78433091 L1.22325195,7.15248593 C1.12215625,6.562761 1.12215625,5.97304491 1.22325195,5.38331999 L0.161752388,4.75147501 C0.0943552528,4.71777644 0.0480204176,4.66722935 0.0227464921,4.59983221 C-0.0025274335,4.53243508 -0.00673969124,4.46503895 0.0101095925,4.39764182 C0.296547415,3.50462978 0.759895767,2.71272533 1.40016855,2.02190469 C1.4507164,1.97135684 1.50968801,1.93765878 1.57708514,1.9208095 C1.64448228,1.90396021 1.7118784,1.91238473 1.77927554,1.9460833 L2.8407751,2.57792828 C3.29570576,2.19039475 3.80960121,1.89553671 4.38247685,1.6933453 L4.38247685,0.454929144 C4.38247685,0.387532009 4.40353814,0.324348143 4.44566135,0.26537565 C4.48778456,0.206403157 4.54254391,0.168492837 4.60994104,0.151643553 C5.53665165,-0.0505478511 6.46334835,-0.0505478511 7.39005896,0.151643553 C7.45745609,0.168492837 7.51221544,0.206403157 7.55433865,0.26537565 C7.59646186,0.324348143 7.61752315,0.387532009 7.61752315,0.454929144 L7.61752315,1.6933453 C8.19039879,1.89553671 8.70429424,2.19039475 9.1592249,2.57792828 L10.2207245,1.9460833 C10.2881216,1.91238473 10.3555177,1.90396021 10.4229149,1.9208095 C10.490312,1.93765878 10.5492836,1.97135684 10.5998315,2.02190469 C11.2401042,2.71272533 11.7034526,3.50462978 11.9898904,4.39764182 C12.0067397,4.46503895 12.0025274,4.53243508 11.9772535,4.59983221 C11.9519796,4.66722935 11.9056447,4.71777644 11.8382476,4.75147501 L10.776748,5.38331999 C10.8778437,5.97304491 10.8778437,6.562761 10.776748,7.15248593 Z M8.02190394,6.26790296 C8.02190394,5.71187659 7.82392782,5.23589147 7.42796965,4.8399333 C7.03201149,4.44397514 6.55602636,4.24599902 6,4.24599902 C5.44397364,4.24599902 4.96798851,4.44397514 4.57203035,4.8399333 C4.17607218,5.23589147 3.97809606,5.71187659 3.97809606,6.26790296 C3.97809606,6.82392932 4.17607218,7.29991444 4.57203035,7.69587261 C4.96798851,8.09183078 5.44397364,8.28980689 6,8.28980689 C6.55602636,8.28980689 7.03201149,8.09183078 7.42796965,7.69587261 C7.82392782,7.29991444 8.02190394,6.82392932 8.02190394,6.26790296 Z" id="path"></path>
                    </g>
                </g>
            </g>
        </g>
    </g>
</svg>