<?xml version="1.0" encoding="UTF-8"?>
<svg width="35px" height="35px" viewBox="0 0 35 35" version="1.1" xmlns="http://www.w3.org/2000/svg" xmlns:xlink="http://www.w3.org/1999/xlink">
    <!-- Generator: sketchtool 58 (101010) - https://sketch.com -->
    <title>45510FB5-8B82-4C70-8825-DD54DE6B6FCE</title>
    <desc>Created with sketchtool.</desc>
    <g id="2.-Company-/-Bank-/-Branches" stroke="none" stroke-width="1" fill="none" fill-rule="evenodd">
        <g id="Company-Details-(Add-More)" transform="translate(-130.000000, -183.000000)" fill="#000000" fill-rule="nonzero">
            <g id="not-submitted" transform="translate(100.000000, 155.000000)">
                <g id="iconfinder_interface-09_4634385" transform="translate(30.000000, 28.000000)">
                    <path d="M17.5,35 C7.84993487,35 0,27.1494955 0,17.5 C0,7.85050455 7.84993487,0 17.5,0 C27.1500651,0 35,7.85050455 35,17.5 C35,27.1494954 27.1500651,35 17.5,35 Z M17.5,2.33333333 C9.13736985,2.33333333 2.33333333,9.13680017 2.33333333,17.5 C2.33333333,25.8631998 9.13736985,32.6666667 17.5,32.6666667 C25.8626301,32.6666667 32.6666667,25.8631998 32.6666667,17.5 C32.6666667,9.13680017 25.8626303,2.33333333 17.5,2.33333333 Z" id="Shape"></path>
                    <g id="Group" transform="translate(4.666667, 4.666667)">
                        <path d="M12.8333333,4.43196612 C12.1884765,4.43196612 11.6666667,3.90958657 11.6666667,3.26529945 L11.6666667,1.5255534 C11.6666667,0.881266283 12.1884765,0.358886733 12.8333333,0.358886733 C13.4781901,0.358886733 14,0.881266283 14,1.5255534 L14,3.26529945 C14,3.90958657 13.4781901,4.43196612 12.8333333,4.43196612 Z" id="Path"></path>
                        <path d="M12.8333333,25.3077799 C12.1884765,25.3077799 11.6666667,24.7854004 11.6666667,24.1411133 L11.6666667,22.4013672 C11.6666667,21.7570801 12.1884765,21.2347005 12.8333333,21.2347005 C13.4781901,21.2347005 14,21.7570801 14,22.4013672 L14,24.1411133 C14,24.7854004 13.4781901,25.3077799 12.8333333,25.3077799 Z" id="Path"></path>
                        <path d="M19.5986328,7.23413087 C19.3001301,7.23413087 19.0016275,7.12019852 18.7737629,6.89233393 C18.3180338,6.43660477 18.3180338,5.69775383 18.7737629,5.24202467 L20.0042317,4.01269528 C20.4599608,3.55696612 21.1982421,3.55696612 21.6539713,4.01269528 C22.1097004,4.46842445 22.1097004,5.20727538 21.6539713,5.66243487 L20.4235025,6.89233393 C20.195638,7.12019852 19.8971354,7.23413087 19.5986328,7.23413087 Z" id="Path"></path>
                        <path d="M4.83756513,21.9957682 C4.5390625,21.9957682 4.24055987,21.8818359 4.01269528,21.6539713 C3.55696612,21.1982421 3.55696612,20.4593912 4.01269528,20.0042317 L5.24316403,18.7743326 C5.6988932,18.3186035 6.43717445,18.3186035 6.89290362,18.7743326 C7.34863278,19.2300618 7.34863278,19.9689127 6.89290362,20.4246419 L5.66243487,21.6539713 C5.43457028,21.881836 5.13606777,21.9957682 4.83756513,21.9957682 Z" id="Path"></path>
                        <path d="M24.1411133,14 L22.4013672,14 C21.7565104,14 21.2347005,13.4776205 21.2347005,12.8333333 C21.2347005,12.1890462 21.7565104,11.6666667 22.4013672,11.6666667 L24.1411133,11.6666667 C24.7859701,11.6666667 25.3077799,12.1890462 25.3077799,12.8333333 C25.3077799,13.4776205 24.7859701,14 24.1411133,14 Z" id="Path"></path>
                        <path d="M3.26529945,14 L1.5255534,14 C0.8806966,14 0.358886733,13.4776205 0.358886733,12.8333333 C0.358886733,12.1890462 0.8806966,11.6666667 1.5255534,11.6666667 L3.26529945,11.6666667 C3.91015625,11.6666667 4.43196612,12.1890462 4.43196612,12.8333333 C4.43196612,13.4776205 3.91015625,14 3.26529945,14 Z" id="Path"></path>
                        <path d="M20.8291015,21.9957682 C20.5305989,21.9957682 20.2320963,21.8818359 20.0042317,21.6539713 L18.7737629,20.4246419 C18.3180338,19.9689127 18.3180338,19.2300618 18.7737629,18.7743326 C19.2294921,18.3186035 19.9677733,18.3186035 20.4235025,18.7743326 L21.6539713,20.0042317 C22.1097004,20.4593912 22.1097004,21.1982421 21.6539713,21.6539713 C21.4261068,21.881836 21.1276042,21.9957682 20.8291015,21.9957682 Z" id="Path"></path>
                        <path d="M6.06803388,7.23413087 C5.76953125,7.23413087 5.47102862,7.12019852 5.24316403,6.89233393 L4.01269528,5.66243487 C3.55696612,5.20727538 3.55696612,4.46842445 4.01269528,4.01269528 C4.46842445,3.55696612 5.2067057,3.55696612 5.66243487,4.01269528 L6.89290362,5.24202467 C7.34863278,5.69775383 7.34863278,6.43660477 6.89290362,6.89233393 C6.66503903,7.12019852 6.36653652,7.23413087 6.06803388,7.23413087 Z" id="Path"></path>
                    </g>
                </g>
            </g>
        </g>
    </g>
</svg>