<?xml version="1.0" encoding="UTF-8"?>
<svg width="35px" height="35px" viewBox="0 0 35 35" version="1.1" xmlns="http://www.w3.org/2000/svg" xmlns:xlink="http://www.w3.org/1999/xlink">
    <!-- Generator: sketchtool 58 (101010) - https://sketch.com -->
    <title>9C6CD544-E42D-4D08-83D0-31D462D066C3</title>
    <desc>Created with sketchtool.</desc>
    <g id="7.-Data-after-first-submission" stroke="none" stroke-width="1" fill="none" fill-rule="evenodd">
        <g id="Bank-Account-(View)" transform="translate(-130.000000, -183.000000)" fill="#000000" fill-rule="nonzero">
            <g id="Status/pending-approval" transform="translate(100.000000, 155.000000)">
                <g id="pending-approval">
                    <g id="iconfinder_error_326633" transform="translate(30.000000, 28.000000)">
                        <path d="M17.5,0 C7.875,0 0,7.875 0,17.5 C0,27.125 7.875,35 17.5,35 C27.125,35 35,27.125 35,17.5 C35,7.875 27.125,0 17.5,0 L17.5,0 Z M19.25,26.25 L15.75,26.25 L15.75,22.75 L19.25,22.75 L19.25,26.25 L19.25,26.25 Z M19.25,19.25 L15.75,19.25 L15.75,8.75 L19.25,8.75 L19.25,19.25 L19.25,19.25 Z" id="Shape"></path>
                    </g>
                </g>
            </g>
        </g>
    </g>
</svg>